<svg xmlns="http://www.w3.org/2000/svg" viewBox="0 0 512 512" role="img" aria-label="PadiGuard icon">
  <defs>
    <linearGradient id="g" x1="0" y1="0" x2="1" y2="1">
      <stop offset="0" stop-color="#10a36c" />
      <stop offset="1" stop-color="#0fa4ae" />
    </linearGradient>
  </defs>
  <rect width="512" height="512" rx="120" fill="#edf8f4"/>
  <circle cx="256" cy="256" r="170" fill="url(#g)" opacity="0.2"/>
  <path d="M256 110c44 35 68 86 68 143 0 83-54 150-122 150-34 0-64-16-85-44 44 7 83-4 111-30 30-28 44-69 43-116 0-37-6-70-15-103z" fill="#0f6d68"/>
  <path d="M220 152c27 21 42 52 42 87 0 58-37 105-84 105-24 0-44-9-59-27 30 5 55-3 74-20 19-18 28-45 27-75 0-23-4-45-10-70z" fill="#10a36c"/>
  <path d="M356 158l20 28-50 36-20-28z" fill="#0fa4ae"/>
</svg>
