<svg xmlns="http://www.w3.org/2000/svg" viewBox="0 0 512 512" role="img" aria-label="PadiGuard maskable icon">
  <defs>
    <linearGradient id="bg" x1="0" y1="0" x2="1" y2="1">
      <stop offset="0" stop-color="#0c6e53" />
      <stop offset="1" stop-color="#0e6f82" />
    </linearGradient>
  </defs>
  <rect width="512" height="512" fill="url(#bg)"/>
  <circle cx="256" cy="256" r="184" fill="#dff8f1" opacity="0.18"/>
  <path d="M256 116c44 35 68 86 68 143 0 83-54 150-122 150-34 0-64-16-85-44 44 7 83-4 111-30 30-28 44-69 43-116 0-37-6-70-15-103z" fill="#ecfff8"/>
  <path d="M220 158c27 21 42 52 42 87 0 58-37 105-84 105-24 0-44-9-59-27 30 5 55-3 74-20 19-18 28-45 27-75 0-23-4-45-10-70z" fill="#8effd5"/>
  <circle cx="364" cy="164" r="22" fill="#7de8ff"/>
</svg>
